<svg xmlns="http://www.w3.org/2000/svg" width="166" height="16" viewBox="0 0 166 16">
    <g fill="none" fill-rule="evenodd">
        <g>
            <g>
                <g>
                    <g>
                        <path fill="#565555" d="M84.354 6.215L88.54 6.215 88.54 5.554 83.804 5.554 83.804 11.612 88.65 11.612 88.65 11.061 84.354 11.061 84.354 8.747 88.43 8.747 88.43 8.198 84.354 8.198 84.354 6.215M100.656 5.554L99.664 5.554 97.02 10.841 94.378 5.554 93.386 5.554 93.386 11.612 94.048 11.612 94.048 6.435 96.691 11.612 97.352 11.612 99.995 6.435 99.995 11.612 100.656 11.612 100.656 5.554M107.375 6.215L107.375 5.554 102.639 5.554 102.639 11.612 107.485 11.612 107.485 11.061 103.301 11.061 103.301 8.747 107.264 8.747 107.264 8.198 103.301 8.198 103.301 6.215 107.375 6.215M116.296 5.554L115.416 5.554 112.772 10.841 110.019 5.554 109.137 5.554 109.137 11.612 109.799 11.612 109.799 6.435 112.441 11.612 112.992 11.612 115.635 6.435 115.635 11.612 116.296 11.612 116.296 5.554M121.694 5.554h-3.415v6.058h3.306c1.32 0 1.982-.55 1.982-1.652 0-.88-.44-1.431-1.213-1.542.661-.22.992-.662.992-1.322 0-.991-.55-1.542-1.652-1.542zm-.11.66c.77-.11 1.102.221 1.211.882-.11.771-.55 1.102-1.431 1.102h-2.533V6.215h2.754zm.11 2.533c.77 0 1.211.441 1.211 1.213 0 .77-.44 1.101-1.431 1.101h-2.643V8.747h2.863zM137.224 7.206c0-1.101-.66-1.652-1.872-1.652h-3.305v6.058h.552V8.968h2.534c.88 0 1.43.44 1.43 1.432 0 .44 0 .882.11 1.212h.662l-.22-1.212c0-1.101-.33-1.653-.992-1.653.772-.218 1.1-.77 1.1-1.541zm-1.872-.991c.88-.11 1.211.22 1.211.99 0 .772-.44 1.213-1.21 1.213h-2.754V6.215h2.753zM130.175 6.215L130.175 5.554 125.439 5.554 125.439 11.612 130.286 11.612 130.286 11.061 125.99 11.061 125.99 8.747 130.064 8.747 130.064 8.198 125.99 8.198 125.99 6.215 130.175 6.215" transform="translate(-930 -425) translate(0 401) translate(930 16) translate(0 8)"/>
                        <path fill="#E0E0E0" d="M146.698 5.884L143.613 5.994 146.587 7.756 149.672 6.215 146.698 5.884" transform="translate(-930 -425) translate(0 401) translate(930 16) translate(0 8)"/>
                        <path fill="#323232" d="M146.587 7.756L146.477 11.282 148.239 8.858 149.672 6.215 146.587 7.756" transform="translate(-930 -425) translate(0 401) translate(930 16) translate(0 8)"/>
                        <path fill="#AEAEAE" d="M146.477 11.282L146.587 7.756 143.613 5.994 144.934 8.747 146.477 11.282" transform="translate(-930 -425) translate(0 401) translate(930 16) translate(0 8)"/>
                        <path fill="#E0E0E0" d="M154.628 3.351L154.628 6.325 155.069 9.299 156.611 6.215 154.628 3.351" transform="translate(-930 -425) translate(0 401) translate(930 16) translate(0 8)"/>
                        <path fill="#323232" d="M160.025 5.994L156.611 6.215 155.069 9.299 157.601 7.756 160.025 5.994" transform="translate(-930 -425) translate(0 401) translate(930 16) translate(0 8)"/>
                        <path fill="#AEAEAE" d="M156.611 6.215L160.025 5.994 157.382 4.452 154.628 3.351 156.611 6.215M153.527 5.775L152.866 2.8 151.875.046 150.992 3.351 153.527 5.775" transform="translate(-930 -425) translate(0 401) translate(930 16) translate(0 8)"/>
                        <path fill="#323232" d="M150.553 5.223L153.527 5.775 150.992 3.351 147.689 4.342 150.553 5.223" transform="translate(-930 -425) translate(0 401) translate(930 16) translate(0 8)"/>
                        <path fill="#E0E0E0" d="M151.875 0.046L149.562 2.029 147.689 4.342 150.992 3.351 151.875 0.046" transform="translate(-930 -425) translate(0 401) translate(930 16) translate(0 8)"/>
                        <path fill="#AEAEAE" d="M157.601 12.603L157.713 9.63 155.62 12.383 156.831 15.577 157.601 12.603" transform="translate(-930 -425) translate(0 401) translate(930 16) translate(0 8)"/>
                        <path fill="#E0E0E0" d="M155.62 12.383L157.713 9.63 154.847 10.511 152.205 11.833 155.62 12.383" transform="translate(-930 -425) translate(0 401) translate(930 16) translate(0 8)"/>
                        <path fill="#323232" d="M152.205 11.833L154.408 13.925 156.831 15.577 155.62 12.383 152.205 11.833M152.755 14.476L152.644 14.476 149.451 13.374 146.808 15.577 149.781 15.247 152.644 14.586 152.755 14.476" transform="translate(-930 -425) translate(0 401) translate(930 16) translate(0 8)"/>
                        <path fill="#AEAEAE" d="M152.644 14.476L150.992 12.052 148.79 9.96 149.451 13.374 152.644 14.476M152.644 14.586L152.755 14.586 152.755 14.476 152.644 14.586" transform="translate(-930 -425) translate(0 401) translate(930 16) translate(0 8)"/>
                        <path fill="#E0E0E0" d="M146.808 15.577L149.451 13.374 148.79 9.96 146.808 15.577" transform="translate(-930 -425) translate(0 401) translate(930 16) translate(0 8)"/>
                        <path fill="#565555" d="M3.617 5.554h-.772L.092 11.612h.66l.882-1.763h3.194l.771 1.763h.66L3.618 5.554zm.88 3.745H1.855l1.321-3.084 1.321 3.084zM14.961 7.317h.552c-.11-1.212-.882-1.874-2.534-1.874-1.652 0-2.424.55-2.424 1.763 0 .771.772 1.323 2.204 1.652 1.542.11 2.202.55 2.313 1.102-.11.88-.661 1.211-1.872 1.211-1.322 0-2.094-.44-2.094-1.541h-.66c.109 1.431.991 2.203 2.754 2.203 1.652 0 2.532-.662 2.532-1.873 0-.88-.77-1.431-2.203-1.652-1.541-.221-2.202-.662-2.202-1.212 0-.771.55-1.102 1.652-1.102 1.212 0 1.873.441 1.982 1.323M19.698 6.215L22.011 6.215 22.011 5.554 16.724 5.554 16.724 6.215 19.037 6.215 19.037 11.612 19.698 11.612 19.698 6.215M25.976 5.554h-.77l-2.754 6.058h.66l.882-1.763h3.194l.77 1.763h.662l-2.644-6.058zm.882 3.745h-2.643l1.32-3.084 1.323 3.084zM33.356 5.554h-3.193v6.058h.55V8.968h2.423c.991 0 1.432.44 1.432 1.432l.22 1.212h.661c-.11-.11-.22-.55-.22-1.212 0-1.101-.441-1.653-.992-1.653.771-.218 1.101-.77 1.101-1.541 0-1.101-.66-1.652-1.982-1.652zm.11.66c.771-.11 1.213.221 1.213.992s-.442 1.212-1.323 1.212h-2.643V6.215h2.754zM43.16 5.554h-.771l-2.754 6.058h.66l.772-1.763h3.193l.882 1.763h.66L43.16 5.554zm.88 3.745h-2.643l1.322-3.084 1.322 3.084zM47.785 5.554L47.125 5.554 47.125 11.612 51.641 11.612 51.641 11.061 47.785 11.061 47.785 5.554M53.623 5.554L52.963 5.554 52.963 11.612 57.479 11.612 57.479 11.061 53.623 11.061 53.623 5.554M58.91 11.612L59.461 11.612 59.461 5.554 58.91 5.554zM81.82 7.646c-.11-1.431-1.1-2.203-2.863-2.203-1.101 0-1.872.44-2.533 1.102-.44.55-.771 1.211-.771 2.093 0 2.093 1.1 3.085 3.304 3.195 1.762 0 2.754-.883 2.974-2.424h-.661c-.22 1.212-.991 1.762-2.313 1.762-1.763 0-2.533-.881-2.533-2.533 0-1.762.77-2.644 2.533-2.644 1.322 0 2.093.551 2.313 1.652h.55M69.154 5.554L68.383 5.554 68.383 11.612 69.044 11.612 69.044 6.545 73.23 11.612 74 11.612 74 5.554 73.34 5.554 73.34 10.731 69.154 5.554M64.308 5.554h-.662l-2.753 6.058h.661l.77-1.763h3.196l.77 1.763h.771l-2.753-6.058zm.99 3.745h-2.643l1.322-3.084L65.3 9.299zM162.338 4.122L162.338 5.554 162.449 5.554 162.449 4.122 163.109 4.122 163.109 4.012 161.677 4.012 161.677 4.122 162.338 4.122M164.982 4.012L164.321 5.333 163.66 4.012 163.44 4.012 163.44 5.554 163.66 5.554 163.66 4.231 164.21 5.554 164.432 5.554 165.092 4.231 165.092 5.554 165.201 5.554 165.201 4.012 164.982 4.012" transform="translate(-930 -425) translate(0 401) translate(930 16) translate(0 8)"/>
                        <path stroke="#FFF" stroke-linecap="round" stroke-linejoin="round" stroke-width=".117" d="M25.976 5.554l2.644 6.058h-.661l-.77-1.763h-3.195l-.881 1.763h-.66l2.752-6.058h.771m73.688 0l-2.644 5.287-2.642-5.287h-.992v6.058h.662V6.435l2.643 5.177h.66l2.644-5.177v5.177h.66V5.554h-.991m22.03 0c1.101 0 1.652.55 1.652 1.542 0 .66-.33 1.102-.992 1.322.772.11 1.213.661 1.213 1.542 0 1.101-.662 1.652-1.982 1.652h-3.306V5.554h3.415m-2.863.66v1.984h2.533c.881 0 1.322-.33 1.431-1.102-.11-.66-.441-.991-1.21-.881h-2.754m-9.694-.66v6.057h.662V6.435l2.642 5.177h.551l2.643-5.177v5.177h.661V5.554h-.88l-2.644 5.287-2.753-5.287h-.882m-1.762 0h-4.736v6.058h4.846v-.55H103.3V8.746h3.963v-.55h-3.963V6.216h4.074v-.66m22.8 0h-4.736v6.057h4.847v-.55h-4.296V8.746h4.074v-.55h-4.074V6.216h4.185v-.66m2.424.66v2.203h2.753c.77 0 1.211-.44 1.211-1.212 0-.77-.33-1.101-1.21-.991h-2.754m2.753-.66c1.211 0 1.872.55 1.872 1.65 0 .772-.329 1.324-1.101 1.542.661 0 .992.552.992 1.653l.22 1.212h-.662c-.11-.33-.11-.771-.11-1.212 0-.991-.55-1.432-1.43-1.432h-2.534v2.644h-.552V5.554h3.305m-13.658 3.193h-2.863v2.314h2.643c.99 0 1.431-.33 1.431-1.1 0-.773-.44-1.214-1.21-1.214M3.616 5.554l2.643 6.058H5.6l-.772-1.763H1.634l-.881 1.763h-.66l2.752-6.058h.772m11.896 1.763c-.11-1.212-.882-1.874-2.534-1.874-1.652 0-2.424.55-2.424 1.763 0 .771.772 1.323 2.204 1.652 1.542.11 2.202.55 2.313 1.102-.11.88-.661 1.211-1.872 1.211-1.322 0-2.094-.44-2.094-1.541h-.66c.109 1.431.991 2.203 2.754 2.203 1.652 0 2.532-.662 2.532-1.873 0-.88-.77-1.431-2.203-1.652-1.541-.221-2.202-.662-2.202-1.212 0-.771.55-1.102 1.652-1.102 1.212 0 1.873.441 1.982 1.323h.552m1.21-1.102h2.314v5.397h.66V6.215h2.314v-.66h-5.287v.66" transform="translate(-930 -425) translate(0 401) translate(930 16) translate(0 8)"/>
                        <path stroke="#FFF" stroke-linecap="round" stroke-linejoin="round" stroke-width=".117" d="M88.54 6.215v-.66h-4.736v6.057h4.846v-.55h-4.296V8.746h4.076v-.55h-4.076V6.216h4.186zm-55.073 0h-2.754v2.203h2.643c.881 0 1.323-.44 1.323-1.212 0-.77-.442-1.101-1.212-.991h0zm1.871.99c0 .772-.33 1.324-1.1 1.542.55 0 .991.552.991 1.653 0 .661.11 1.102.22 1.212h-.661l-.22-1.212c0-.991-.44-1.432-1.432-1.432h-2.423v2.644h-.55V5.554h3.193c1.323 0 1.982.55 1.982 1.652h0zm7.821-1.65l2.643 6.057h-.66l-.882-1.763h-3.193l-.772 1.763h-.66l2.754-6.058h.77zm3.966 0v6.057h4.516v-.55h-3.856V5.553h-.66 0zm5.838 0v6.057h4.516v-.55h-3.856V5.553h-.66 0zm5.947 6.057h.551V5.554h-.55v6.058zm5.398-6.058l2.753 6.058h-.771l-.77-1.763h-3.195l-.77 1.763h-.662l2.753-6.058h.662zM81.82 7.646c-.11-1.431-1.1-2.203-2.863-2.203-1.101 0-1.872.44-2.533 1.102-.44.55-.771 1.211-.771 2.093 0 2.093 1.1 3.085 3.304 3.195 1.762 0 2.754-.883 2.974-2.424h-.661c-.22 1.212-.991 1.762-2.313 1.762-1.763 0-2.533-.881-2.533-2.533 0-1.762.77-2.644 2.533-2.644 1.322 0 2.093.551 2.313 1.652h.55zm-8.48-2.092v5.177l-4.186-5.177h-.77v6.058h.66V6.545l4.186 5.067H74V5.554h-.66 0zM65.299 9.3l-1.322-3.084-1.322 3.084H65.3zm-21.258 0l-1.322-3.084-1.322 3.084h2.644zm-17.183 0l-1.322-3.084-1.321 3.084h2.643zm-22.36 0L3.175 6.215 1.855 9.299h2.642z" transform="translate(-930 -425) translate(0 401) translate(930 16) translate(0 8)"/>
                        <path d="M0 0H166V16H0z" transform="translate(-930 -425) translate(0 401) translate(930 16) translate(0 8)"/>
                    </g>
                </g>
            </g>
        </g>
    </g>
</svg>
