<?xml version="1.0" encoding="UTF-8" standalone="no"?>
<svg
   xmlns:dc="http://purl.org/dc/elements/1.1/"
   xmlns:cc="http://creativecommons.org/ns#"
   xmlns:rdf="http://www.w3.org/1999/02/22-rdf-syntax-ns#"
   xmlns:svg="http://www.w3.org/2000/svg"
   xmlns="http://www.w3.org/2000/svg"
   xmlns:sodipodi="http://sodipodi.sourceforge.net/DTD/sodipodi-0.dtd"
   xmlns:inkscape="http://www.inkscape.org/namespaces/inkscape"
   width="274.65952mm"
   height="58.572887mm"
   viewBox="0 0 274.65951 58.572887"
   version="1.1"
   id="svg1018"
   inkscape:version="1.0.2-2 (e86c870879, 2021-01-15)"
   sodipodi:docname="oficial-logo.svg">
  <defs
     id="defs1012" />
  <sodipodi:namedview
     id="base"
     pagecolor="#ffffff"
     bordercolor="#666666"
     borderopacity="1.0"
     inkscape:pageopacity="0.0"
     inkscape:pageshadow="2"
     inkscape:zoom="0.35"
     inkscape:cx="139.02848"
     inkscape:cy="435.69232"
     inkscape:document-units="mm"
     inkscape:current-layer="layer1"
     inkscape:document-rotation="0"
     showgrid="false"
     inkscape:window-width="1920"
     inkscape:window-height="1001"
     inkscape:window-x="-9"
     inkscape:window-y="-9"
     inkscape:window-maximized="1"
     fit-margin-top="0"
     fit-margin-left="0"
     fit-margin-right="0"
     fit-margin-bottom="0" />
  <metadata
     id="metadata1015">
    <rdf:RDF>
      <cc:Work
         rdf:about="">
        <dc:format>image/svg+xml</dc:format>
        <dc:type
           rdf:resource="http://purl.org/dc/dcmitype/StillImage" />
        <dc:title></dc:title>
      </cc:Work>
    </rdf:RDF>
  </metadata>
  <g
     inkscape:label="Layer 1"
     inkscape:groupmode="layer"
     id="layer1"
     transform="translate(11.841658,-1.7076013)">
    <path
       class="st0"
       d="m 236.5737,27.044681 c -7.38181,1.600594 -14.7993,3.022568 -22.32735,1.177002 2.28398,2.129661 6.00442,1.250445 8.71431,2.792261 -3.80897,1.115374 -8.00684,-0.842682 -12.22938,1.375463 5.95774,1.922948 12.23097,-0.01125 17.19997,2.632022 2.10348,-0.129407 4.148,-0.101275 6.14587,0.599322 0.59858,0.04764 0.67007,0.405175 0.61728,0.820064 0.67629,0.662525 1.57187,1.288479 0.83806,2.149316 -3.41401,4.44623 -4.91876,9.829253 -10.33686,13.317572 -4.05619,2.596538 -7.98174,5.392851 -12.00218,8.168008 8.2681,1.242155 13.72034,-3.433332 19.51775,-6.837218 5.39481,-3.152162 10.43348,-6.72484 15.60284,-10.097856 0.3668,-0.430419 0.73378,-0.860837 1.07113,-1.212448 2.43608,-4.578488 7.57124,-6.764263 12.4218,-9.01339 0.87065,-0.403712 1.51127,0.08027 0.4791,-1.002847 -1.83929,-1.945378 -3.58372,-3.869638 -6.71339,-4.565922 0.67282,-2.069158 2.72218,-3.149349 4.07788,-4.298518 3.60521,-3.038247 3.43563,-6.148211 2.56646,-9.584584 -1.07142,-3.9933664 -2.7646,-7.6984075 -6.6018,-10.3442775 -0.83021,-0.526093 -2.96651,-3.04959302 -4.1122,0.279819 0.84895,1.298336 1.19412,2.569914 -0.47562,3.734567 -0.26573,0.708895 -0.5021,1.339064 -0.76794,2.048007 0.13063,0.1997371 0.13666,0.4571441 0.0778,0.6146561 0.0129,0.5147994 -0.0406,0.9297794 -0.0281,1.4446194 0.0715,0.357238 0.17269,0.635751 0.24418,0.993064 -0.1708,0.730072 -0.34204,1.460039 -0.51305,2.190047 -0.0281,0.07877 0.0362,0.178544 0.006,0.257688 -0.0592,0.157539 -0.21322,0.294073 -0.36685,0.430419 -0.18821,1.323587 -1.36029,2.257567 -2.24801,3.254824 -0.7154,1.633002 -2.42054,2.619044 -3.96594,3.726016 -0.52073,0.566877 -1.16596,1.191405 -1.68679,1.758244 -0.41354,1.102771 -1.01666,2.163382 -2.58069,2.498114 -0.49122,0.488108 -1.45676,0.870664 -2.62437,0.696246 z"
       id="path2029-2-68"
       style="clip-rule:evenodd;fill:#ffffff;fill-opacity:1;fill-rule:evenodd;stroke-width:2.77642;stroke-miterlimit:4;stroke-dasharray:none"
       inkscape:export-filename="C:\Users\Norman\path2029-2-68.png"
       inkscape:export-xdpi="96.760002"
       inkscape:export-ydpi="96.760002" />
    <text
       xml:space="preserve"
       style="font-size:57.6263px;line-height:1.25;font-family:sans-serif;-inkscape-font-specification:sans-serif;letter-spacing:-1.82345px;fill:#ffffff;fill-opacity:1;stroke-width:1.44065;"
       x="-11.841658"
       y="54.805656"
       id="text952"
       inkscape:export-filename="C:\Users\Norman\path2029-2-68.png"
       inkscape:export-xdpi="96.760002"
       inkscape:export-ydpi="96.760002"><tspan
         sodipodi:role="line"
         id="tspan950"
         x="-11.841658"
         y="54.805656"
         style="font-style:normal;font-variant:normal;font-weight:bold;font-stretch:normal;font-family:'Open Sans';-inkscape-font-specification:'Open Sans Bold';fill:#ffffff;stroke-width:1.44065;">Atlantic</tspan></text>
  </g>
</svg>
