<?xml version="1.0" encoding="UTF-8" standalone="no"?>
<svg
   xmlns:dc="http://purl.org/dc/elements/1.1/"
   xmlns:cc="http://creativecommons.org/ns#"
   xmlns:rdf="http://www.w3.org/1999/02/22-rdf-syntax-ns#"
   xmlns:svg="http://www.w3.org/2000/svg"
   xmlns="http://www.w3.org/2000/svg"
   xmlns:sodipodi="http://sodipodi.sourceforge.net/DTD/sodipodi-0.dtd"
   xmlns:inkscape="http://www.inkscape.org/namespaces/inkscape"
   width="52.086575mm"
   height="58.572887mm"
   viewBox="0 0 52.086575 58.572887"
   version="1.1"
   id="svg8"
   inkscape:version="1.0.2-2 (e86c870879, 2021-01-15)"
   sodipodi:docname="white-single-logo.svg">
  <defs
     id="defs2" />
  <sodipodi:namedview
     id="base"
     pagecolor="#ffffff"
     bordercolor="#666666"
     borderopacity="1.0"
     inkscape:pageopacity="0.0"
     inkscape:pageshadow="2"
     inkscape:zoom="0.35"
     inkscape:cx="152.71706"
     inkscape:cy="170.68892"
     inkscape:document-units="mm"
     inkscape:current-layer="layer1"
     inkscape:document-rotation="0"
     showgrid="false"
     fit-margin-top="0"
     fit-margin-left="0"
     fit-margin-right="0"
     fit-margin-bottom="0"
     inkscape:window-width="1566"
     inkscape:window-height="1030"
     inkscape:window-x="128"
     inkscape:window-y="0"
     inkscape:window-maximized="0" />
  <metadata
     id="metadata5">
    <rdf:RDF>
      <cc:Work
         rdf:about="">
        <dc:format>image/svg+xml</dc:format>
        <dc:type
           rdf:resource="http://purl.org/dc/dcmitype/StillImage" />
        <dc:title></dc:title>
      </cc:Work>
    </rdf:RDF>
  </metadata>
  <g
     inkscape:label="Layer 1"
     inkscape:groupmode="layer"
     id="layer1"
     transform="translate(-65.426945,-103.00522)">
    <path
       class="st0"
       d="m 91.269365,128.3423 c -7.38181,1.6006 -14.7993,3.02257 -22.32735,1.177 2.28398,2.12966 6.00442,1.25045 8.71431,2.79226 -3.80897,1.11538 -8.00684,-0.84268 -12.22938,1.37547 5.95774,1.92295 12.23097,-0.0113 17.19997,2.63202 2.10348,-0.12941 4.148,-0.10127 6.14587,0.59932 0.59858,0.0476 0.67007,0.40518 0.61728,0.82007 0.67629,0.66252 1.57187,1.28848 0.83806,2.14931 -3.41401,4.44623 -4.91876,9.82926 -10.33686,13.31758 -4.05619,2.59653 -7.98174,5.39285 -12.00218,8.168 8.2681,1.24216 13.72034,-3.43333 19.51775,-6.83721 5.39481,-3.15217 10.43348,-6.72484 15.602835,-10.09786 0.3668,-0.43042 0.73378,-0.86084 1.07113,-1.21245 2.43608,-4.57849 7.57124,-6.76426 12.4218,-9.01339 0.87065,-0.40371 1.51127,0.0803 0.4791,-1.00285 -1.83929,-1.94538 -3.58372,-3.86964 -6.71339,-4.56592 0.67282,-2.06916 2.72218,-3.14935 4.07788,-4.29852 3.60521,-3.03824 3.43563,-6.14821 2.56646,-9.58458 -1.07142,-3.99337 -2.7646,-7.69841 -6.6018,-10.34428 -0.83021,-0.52609 -2.96651,-3.04959 -4.1122,0.27982 0.84895,1.29834 1.19412,2.56991 -0.47562,3.73457 -0.26573,0.70889 -0.5021,1.33906 -0.76794,2.048 0.13063,0.19974 0.13666,0.45715 0.0778,0.61466 0.0129,0.5148 -0.0406,0.92978 -0.0281,1.44462 0.0715,0.35724 0.17269,0.63575 0.24418,0.99306 -0.1708,0.73008 -0.34204,1.46004 -0.51305,2.19005 -0.0281,0.0788 0.0362,0.17854 0.006,0.25769 -0.0592,0.15754 -0.21322,0.29407 -0.36685,0.43042 -0.18821,1.32358 -1.36029,2.25756 -2.24801,3.25482 -0.7154,1.633 -2.420535,2.61905 -3.965935,3.72602 -0.52073,0.56687 -1.16596,1.1914 -1.68679,1.75824 -0.41354,1.10277 -1.01666,2.16338 -2.58069,2.49812 -0.49122,0.4881 -1.45676,0.87066 -2.62437,0.69624 z"
       id="path2029-2-68"
       style="clip-rule:evenodd;fill:#ffffff;fill-opacity:1;fill-rule:evenodd;stroke-width:2.77642;stroke-miterlimit:4;stroke-dasharray:none"
       inkscape:export-filename="C:\Users\Norman\path2029-2-68.png"
       inkscape:export-xdpi="96.760002"
       inkscape:export-ydpi="96.760002" />
  </g>
</svg>
